<?xml version="1.0" standalone="no"?>
<!DOCTYPE svg PUBLIC "-//W3C//DTD SVG 20010904//EN"
 "http://www.w3.org/TR/2001/REC-SVG-20010904/DTD/svg10.dtd">
<svg version="1.0" xmlns="http://www.w3.org/2000/svg"
 width="700.000000pt" height="700.000000pt" viewBox="0 0 700.000000 700.000000"
 preserveAspectRatio="xMidYMid meet">
<metadata>
Created by potrace 1.14, written by Peter Selinger 2001-2017
</metadata>
<g transform="translate(0.000000,700.000000) scale(0.100000,-0.100000)"
fill="#000000" stroke="none">
<path d="M2565 5273 c-88 -10 -171 -38 -231 -79 -119 -82 -215 -119 -394 -154
-197 -38 -270 -102 -304 -264 -28 -138 -71 -179 -186 -179 -36 0 -92 3 -125 8
-132 19 -278 -1 -360 -50 -22 -13 -66 -49 -99 -79 -94 -89 -200 -119 -321 -90
-103 24 -125 14 -57 -27 63 -40 102 -87 102 -127 0 -31 -11 -46 -94 -130 -114
-114 -154 -186 -163 -291 -13 -152 50 -265 202 -363 145 -94 188 -175 141
-266 -21 -41 -6 -48 46 -20 58 31 178 31 258 0 64 -25 192 -102 197 -119 5
-14 -27 -20 -132 -28 -169 -12 -269 -37 -393 -98 -272 -134 -392 -371 -257
-510 63 -65 137 -94 285 -111 234 -28 1878 -28 2599 -1 53 2 173 6 266 10 94
3 202 8 240 10 39 2 126 7 195 11 221 12 323 20 420 35 75 12 89 21 66 44 -33
33 -14 53 72 75 52 13 233 15 362 4 127 -10 180 -8 248 11 102 29 187 88 253
175 66 88 81 132 94 285 21 239 202 202 220 -45 9 -113 14 -144 29 -158 10
-11 19 -4 47 40 98 151 284 147 375 -9 47 -79 82 -52 166 124 32 67 58 126 58
130 0 5 11 22 24 38 l24 30 6 -25 c2 -14 7 -64 9 -111 4 -74 10 -97 45 -172
100 -213 312 -427 423 -427 37 0 69 52 76 123 11 105 -39 177 -121 177 -105 0
-134 110 -141 550 -12 663 -17 835 -24 869 -2 7 -80 -118 -226 -359 -272 -450
-420 -660 -468 -660 -54 0 -162 101 -300 281 -10 13 -68 101 -128 194 -233
360 -299 457 -300 444 -1 -8 -2 -27 -4 -44 -1 -16 -5 -102 -9 -190 -4 -88 -9
-191 -11 -230 -2 -38 -7 -122 -10 -185 -3 -63 -8 -135 -10 -160 -3 -25 -7 -70
-10 -100 -6 -68 -15 -130 -20 -150 -2 -8 -7 -35 -10 -58 -8 -57 -42 -167 -66
-214 -22 -43 -44 -57 -78 -51 -74 11 -109 104 -116 307 -5 145 -12 189 -28
183 -7 -2 -37 -49 -67 -105 -30 -56 -73 -120 -94 -143 -96 -101 -312 -204
-513 -244 -43 -8 -91 -17 -108 -21 -63 -12 -302 -16 -370 -5 -135 21 -183 42
-301 132 -72 54 -142 35 -225 -63 -20 -24 -57 -53 -82 -66 -54 -27 -172 -58
-253 -67 -32 -3 -75 -8 -94 -10 -320 -35 -1569 -35 -1981 0 -32 3 -87 7 -121
10 -170 14 -284 42 -276 67 9 29 104 78 234 121 124 41 433 116 539 131 22 4
51 8 65 11 58 11 91 16 195 30 61 9 125 18 142 20 111 16 215 24 388 30 373
13 415 20 415 67 0 23 -9 38 -78 129 -93 121 -189 397 -238 679 -2 14 -7 39
-11 55 -4 17 -7 32 -8 35 -18 86 -77 245 -128 345 -32 63 -59 98 -128 165 -54
52 -86 90 -81 97 9 14 52 20 187 28 105 6 133 18 112 46 -7 8 -59 52 -117 96
-128 99 -163 134 -154 156 3 10 11 17 18 18 6 0 20 3 31 6 46 12 738 2 895
-12 289 -27 415 -80 530 -224 25 -31 73 -85 108 -120 56 -58 64 -63 78 -50 10
10 17 43 20 95 11 169 79 199 449 199 403 -1 596 -51 721 -187 99 -107 126
-220 139 -577 3 -85 7 -157 9 -160 2 -3 7 -35 10 -71 10 -94 34 -191 56 -228
32 -51 49 -40 74 48 26 95 33 179 41 514 3 120 8 241 10 270 3 28 8 71 10 95
13 126 41 215 79 253 25 26 34 29 65 23 45 -8 127 -69 177 -132 22 -26 45 -54
52 -62 46 -48 352 -501 622 -918 18 -29 36 -53 39 -53 3 0 28 38 55 83 27 45
64 105 81 132 18 28 99 158 180 290 81 132 177 282 213 334 140 202 283 351
338 351 65 0 134 57 134 112 0 46 -26 97 -56 108 -100 38 -317 -127 -518 -395
-46 -60 -135 -182 -198 -270 -124 -171 -135 -185 -205 -257 -71 -74 -82 -64
-47 41 35 105 41 155 19 187 -16 24 -21 26 -72 21 -108 -10 -143 27 -149 160
-4 108 -19 136 -66 122 -18 -5 -43 -9 -55 -9 -35 0 -89 55 -123 125 -64 132
-205 218 -376 230 -94 7 -173 -15 -254 -69 -87 -58 -108 -68 -153 -74 -43 -5
-84 9 -143 49 -52 36 -137 65 -244 85 -47 9 -94 18 -105 20 -11 2 -38 6 -60 9
-22 3 -56 7 -75 10 -51 7 -160 15 -285 20 -60 3 -130 7 -155 10 -55 6 -140 16
-160 20 -8 1 -35 6 -60 10 -58 9 -64 11 -130 29 -125 34 -172 58 -235 119 -68
67 -231 116 -395 120 -58 2 -118 2 -135 0z m-1150 -878 c104 -51 326 -213 371
-271 92 -116 169 -318 209 -543 3 -19 8 -37 10 -40 2 -4 6 -25 10 -48 3 -23
12 -65 19 -93 11 -43 11 -52 0 -57 -19 -7 -899 4 -954 12 -112 17 -186 36
-204 54 -19 19 -19 21 -1 48 42 66 133 141 369 303 61 42 83 66 72 77 -3 3
-85 -17 -183 -45 -291 -81 -383 -100 -531 -106 -67 -3 -150 15 -163 35 -30 46
75 187 302 404 190 182 353 296 454 317 58 13 132 -3 220 -47z"/>
<path d="M3874 4394 c-58 -14 -79 -38 -93 -105 -16 -74 -14 -246 4 -305 23
-73 50 -89 160 -91 166 -3 291 33 364 106 62 62 80 120 61 193 -30 112 -146
186 -316 204 -107 11 -132 10 -180 -2z"/>
<path d="M2829 4056 c-2 -2 -31 -7 -64 -10 -80 -9 -161 -48 -172 -84 -13 -40
-6 -65 33 -111 52 -60 147 -124 271 -183 216 -102 352 -199 435 -310 27 -38
56 -68 63 -68 32 0 47 111 49 355 4 308 -21 365 -169 393 -27 5 -57 10 -65 11
-49 4 -378 10 -381 7z"/>
<path d="M3980 3549 c-128 -12 -171 -39 -196 -126 -17 -59 -18 -236 -1 -288
29 -90 100 -116 312 -118 197 -2 372 30 453 81 55 35 70 123 34 205 -72 164
-333 270 -602 246z"/>
<path d="M1057 2140 c-20 -4 -40 -10 -43 -13 -25 -25 65 -67 144 -67 49 0 112
25 112 45 0 7 -6 18 -14 24 -16 13 -143 20 -199 11z"/>
<path d="M2128 534 c-2 -1 -194 -5 -428 -9 -234 -3 -490 -8 -570 -10 -296 -8
-517 -15 -590 -20 -41 -3 -115 -7 -165 -10 -245 -16 -375 -34 -375 -54 0 -12
73 -29 155 -36 39 -3 84 -8 100 -10 27 -3 109 -8 315 -20 41 -2 169 -7 285
-10 116 -3 273 -8 350 -10 790 -25 3754 -25 4615 0 470 13 839 29 930 40 19 2
64 7 100 10 36 3 73 8 82 11 9 3 26 7 39 9 58 11 32 29 -65 44 -201 30 -551
46 -1486 67 -232 5 -3288 13 -3292 8z"/>
</g>
</svg>
